# Blender v2.83.2 OBJ File: 'cage.blend'
# www.blender.org
mtllib cage.mtl
o 立方體
v -39.713303 -10.936767 10.936767
v -39.713303 10.936767 10.936767
v -39.713303 -10.936767 -10.936767
v -39.713303 10.936767 -10.936767
v 30.372086 -10.936767 10.936767
v 30.372086 10.936767 10.936767
v 30.372086 -10.936767 -10.936767
v 30.372086 10.936767 -10.936767
v -39.713303 -13.630324 -13.630324
v -39.713303 -13.630324 13.630324
v -39.713303 13.630324 13.630324
v -39.713303 13.630324 -13.630324
v 30.372086 13.630324 -13.630324
v 30.372086 -13.630324 -13.630324
v 30.372086 -13.630324 13.630324
v 30.372086 13.630324 13.630324
v 18.679670 10.936767 -10.936767
v 18.679670 -10.936767 -10.936767
v 18.679670 -10.936767 10.936767
v 18.679670 10.936767 10.936767
v 20.960857 10.936767 -10.936767
v 20.960857 -10.936767 -10.936767
v 20.960857 -10.936767 10.936767
v 20.960857 10.936767 10.936767
v 10.669478 10.936767 -10.936767
v 10.669478 -10.936767 -10.936767
v 10.669478 -10.936767 10.936767
v 10.669478 10.936767 10.936767
v 7.480724 10.936767 -10.936767
v 7.480724 -10.936767 -10.936767
v 7.480724 -10.936767 10.936767
v 7.480724 10.936767 10.936767
v 18.679670 -4.799409 10.936767
v 18.679670 -4.799409 -10.936767
v 20.960857 -4.799409 10.936767
v 20.960857 -4.799409 -10.936767
v -16.255768 10.936767 -10.936767
v -16.255768 -10.936767 -10.936767
v -16.255768 -10.936767 10.936767
v -16.255768 10.936767 10.936767
v -39.713303 0.000000 10.936767
v -39.713303 0.000000 -10.936767
v 10.669478 -2.539383 10.936767
v 7.480724 -2.539383 10.936767
v 10.669478 -2.539383 -10.936767
v 7.480724 -2.539383 -10.936767
v -18.097673 -0.000001 -10.487141
v -37.654293 -0.000001 -10.487141
v -18.097673 -0.000001 10.487141
v -37.654293 -0.000001 10.487141
v -16.255768 0.000000 -10.936767
v -16.255768 0.000000 10.936767
v -18.097673 -8.712770 -10.487141
v -37.654293 -8.712770 -10.487141
v -37.654293 -8.712770 10.487141
v -18.097673 -8.712770 10.487141
v -16.255768 -10.936767 3.307404
v -16.255768 0.000000 3.307404
v -16.255768 -10.936767 -3.814681
v -16.255768 0.000000 -3.814681
v -14.002815 0.000000 -3.814681
v -14.002815 0.000000 3.307404
v -14.002815 -10.936767 3.307404
v -14.002815 -10.936767 -3.814681
v -14.002815 -3.947415 3.307404
v -14.002815 -3.947415 -3.814681
v -10.562503 -3.947415 3.307404
v -10.562503 -10.936767 3.307404
v -10.562503 -10.936767 -3.814681
v -10.562503 -3.947415 -3.814681
v -10.562503 -7.733068 3.307404
v -10.562503 -7.733068 -3.814681
v -6.939775 -7.733068 3.307404
v -6.939775 -10.936767 3.307404
v -6.939775 -10.936767 -3.814681
v -6.939775 -7.733068 -3.814681
v -54.426224 -13.630324 -13.630324
v -54.426224 -13.630324 13.630324
v -54.426224 13.630324 13.630324
v -54.426224 13.630324 -13.630324
v -54.426224 -10.936767 -10.936767
v -54.426224 -10.936767 10.936767
v -54.426224 0.000000 10.936767
v -54.426224 10.936767 10.936767
v -54.426224 10.936767 -10.936767
v -54.426224 0.000000 -10.936767
v -41.557449 10.936767 -10.936767
v -41.557449 -10.936767 -10.936767
v -53.370850 10.936767 -10.936767
v -53.370850 -10.936767 -10.936767
v -41.163300 10.936767 -60.727901
v -41.163300 -10.936767 -60.727901
v -52.976700 10.936767 -60.727901
v -52.976700 -10.936767 -60.727901
v -39.713303 -13.630324 -60.727905
v -39.713303 13.630324 -60.727905
v -54.426224 -13.630324 -60.727905
v -54.426224 13.630324 -60.727905
v -35.408466 5.552969 -77.699783
v -35.408466 -16.320562 -77.699783
v -45.503468 5.552969 -83.835518
v -45.503468 -16.320562 -83.835518
v -34.169388 -19.014120 -76.946678
v -34.169388 8.246526 -76.946678
v -46.742142 -19.014120 -84.588387
v -46.742142 8.246526 -84.588387
v -18.043259 -2.074078 -88.920761
v -18.043259 -23.947605 -88.920761
v -24.174252 -2.074078 -99.018646
v -24.174252 -23.947605 -99.018646
v -17.290726 -26.641163 -87.681335
v -17.290726 0.619479 -87.681335
v -24.926531 -26.641163 -100.257668
v -24.926531 0.619479 -100.257668
v 5.593145 -8.916513 -94.215645
v 5.593145 -30.790041 -94.215645
v 2.535972 -8.916513 -105.626610
v 2.535972 -30.790041 -105.626610
v 5.968394 -33.483597 -92.815048
v 5.968394 -6.222958 -92.815048
v 2.160854 -33.483597 -107.026741
v 2.160854 -6.222958 -107.026741
v 25.044861 -15.003963 -91.890961
v 25.044861 -36.877487 -91.890961
v 30.525730 -15.003963 -102.356003
v 30.525730 -36.877487 -102.356003
v 24.372137 -39.571041 -90.606461
v 24.372137 -12.310410 -90.606461
v 31.198229 -39.571041 -103.640060
v 31.198229 -12.310410 -103.640060
v 40.005699 -20.534138 -76.702011
v 40.005699 -42.407661 -76.702011
v 50.773628 -20.534138 -81.560867
v 50.773628 -42.407661 -81.560867
v 38.684021 -45.101215 -76.105606
v 38.684021 -17.840586 -76.105606
v 52.094852 -45.101215 -82.157043
v 52.094852 -17.840586 -82.157043
v 45.792137 -26.899994 -53.808571
v 45.792137 -48.773518 -53.808571
v 57.366302 -26.899994 -51.443123
v 57.366302 -48.773518 -51.443123
v 44.371494 -51.467072 -54.098900
v 44.371494 -24.206444 -54.098900
v 58.786453 -51.467072 -51.152885
v 58.786453 -24.206444 -51.152885
v 38.349117 -36.026115 -28.101391
v 38.349117 -57.899639 -28.101391
v 48.032318 -36.026115 -21.334404
v 48.032318 -57.899639 -21.334404
v 37.160568 -60.593197 -28.931974
v 37.160568 -33.332569 -28.931974
v 49.220455 -60.593197 -20.504095
v 49.220455 -33.332569 -20.504095
v 17.299603 -43.505295 -14.122282
v 17.299603 -65.378822 -14.122282
v 22.627045 -43.505295 -3.578331
v 22.627045 -65.378822 -3.578331
v 16.645685 -68.072380 -15.416465
v 16.645685 -40.811749 -15.416465
v 23.280729 -68.072380 -2.284586
v 23.280729 -40.811749 -2.284586
v -57.084469 -43.871872 -18.276089
v -57.084469 -65.745407 -18.276089
v -57.282814 -43.871872 -6.464351
v -57.282814 -65.745407 -6.464351
v -57.060135 -68.438957 -19.725889
v -57.060135 -41.178326 -19.725889
v -57.307148 -68.438957 -5.015046
v -57.307148 -41.178326 -5.015046
vt 0.375000 0.250000
vt 0.625000 0.250000
vt 0.625000 0.500000
vt 0.375000 0.500000
vt 0.375000 0.750000
vt 0.625000 0.750000
vt 0.625000 1.000000
vt 0.375000 1.000000
vt 0.125000 0.500000
vt 0.125000 0.750000
vt 0.875000 0.500000
vt 0.875000 0.750000
vt 0.125000 0.750000
vt 0.125000 0.500000
vt 0.500000 0.096026
vt 0.399702 0.096026
vt 0.399702 0.096026
vt 0.500000 0.096026
vt 0.600298 0.524702
vt 0.399702 0.524702
vt 0.399702 0.725298
vt 0.600298 0.725298
vt 0.399702 0.484497
vt 0.600298 0.484497
vt 0.500000 0.484497
vt 0.399702 0.631220
vt 0.500000 0.631220
vt 0.600298 0.631220
vt 0.600298 0.466326
vt 0.600298 0.414029
vt 0.600298 0.474752
vt 0.600298 0.608417
vt 0.399702 0.466326
vt 0.500000 0.466326
vt 0.500000 0.608417
vt 0.399702 0.608417
vt 0.399702 0.414029
vt 0.399702 0.474752
vt 0.500000 0.474752
vt 0.500000 0.414029
vt 0.500000 0.389895
vt 0.600298 0.389895
vt 0.399702 0.389895
vt 0.399702 0.409853
vt 0.500000 0.409853
vt 0.600298 0.409853
vt 0.600298 0.259191
vt 0.600298 0.325508
vt 0.399702 0.259191
vt 0.500000 0.259191
vt 0.399702 0.325508
vt 0.399702 0.308929
vt 0.399702 0.292350
vt 0.500000 0.325508
vt 0.000000 0.000000
vt 0.000000 0.000000
vt 0.000000 0.000000
vt 0.000000 0.000000
vt 0.500000 0.255779
vt 0.600298 0.255779
vt 0.399702 0.255779
vt 0.600298 0.096026
vt 0.000000 0.000000
vt 0.000000 0.000000
vt 0.000000 0.000000
vt 0.000000 0.000000
vt 0.000000 0.000000
vt 0.000000 0.000000
vt 0.000000 0.000000
vt 0.000000 0.000000
vt 0.500000 0.251347
vt 0.500000 0.251347
vt 0.500000 0.306572
vt 0.500000 0.306572
vt 0.000000 0.000000
vt 0.000000 0.000000
vt 0.000000 0.000000
vt 0.000000 0.000000
vt 0.000000 0.000000
vt 0.000000 0.000000
vt 0.000000 0.000000
vt 0.000000 0.000000
vt 0.500000 0.132718
vt 0.500000 0.245867
vt 0.500000 0.292350
vt 0.500000 0.308929
vt 0.500000 0.132718
vt 0.500000 0.245867
vt 0.000000 0.000000
vt 0.000000 0.000000
vt 0.000000 0.000000
vt 0.000000 0.000000
vt 0.000000 0.000000
vt 0.000000 0.000000
vt 0.000000 0.000000
vt 0.000000 0.000000
vt 0.000000 0.000000
vt 0.000000 0.000000
vt 0.399702 0.308929
vt 0.399702 0.292350
vt 0.500000 0.292350
vt 0.500000 0.308929
vt 0.000000 0.000000
vt 0.000000 0.000000
vt 0.000000 0.000000
vt 0.000000 0.000000
vt 0.000000 0.000000
vt 0.000000 0.000000
vt 0.399702 0.308929
vt 0.399702 0.292350
vt 0.000000 0.000000
vt 0.000000 0.000000
vt 0.000000 0.000000
vt 0.000000 0.000000
vt 0.399702 0.308929
vt 0.399702 0.292350
vt 0.399702 0.024702
vt 0.399702 0.225298
vt 0.375000 0.250000
vt 0.375000 0.000000
vt 0.600298 0.024702
vt 0.500000 0.024702
vt 0.625000 0.000000
vt 0.600298 0.225298
vt 0.625000 0.250000
vt 0.500000 0.225298
vt 0.600298 0.096026
vt 0.600298 0.255779
vt 0.600298 0.255779
vt 0.600298 0.255779
vt 0.625000 1.000000
vt 0.375000 1.000000
vt 0.399702 0.255779
vt 0.399702 0.255779
vt 0.399702 0.255779
vt 0.875000 0.500000
vt 0.875000 0.750000
vt 0.000000 0.000000
vt 0.000000 0.000000
vt 0.000000 0.000000
vt 0.399702 0.255779
vt 0.600298 0.255779
vt 0.600298 0.255779
vt 0.399702 0.255779
vt 0.000000 0.000000
vt 0.000000 0.000000
vt 0.875000 0.500000
vt 0.875000 0.500000
vt 0.375000 0.250000
vt 0.625000 0.250000
vt 0.125000 0.500000
vt 0.125000 0.500000
vt 0.625000 0.250000
vt 0.375000 0.250000
vt 0.399702 0.255779
vt 0.600298 0.255779
vt 0.000000 0.000000
vt 0.000000 0.000000
vt 0.125000 0.500000
vt 0.125000 0.500000
vt 0.375000 0.250000
vt 0.625000 0.250000
vt 0.600298 0.255779
vt 0.625000 0.250000
vt 0.375000 0.250000
vt 0.399702 0.255779
vt 0.875000 0.500000
vt 0.875000 0.500000
vt 0.399702 0.255779
vt 0.399702 0.255779
vt 0.625000 0.250000
vt 0.375000 0.250000
vt 0.875000 0.500000
vt 0.875000 0.500000
vt 0.600298 0.255779
vt 0.000000 0.000000
vt 0.000000 0.000000
vt 0.125000 0.500000
vt 0.125000 0.500000
vt 0.375000 0.250000
vt 0.625000 0.250000
vt 0.600298 0.255779
vt 0.125000 0.500000
vt 0.125000 0.500000
vt 0.375000 0.250000
vt 0.625000 0.250000
vt 0.600298 0.255779
vt 0.600298 0.255779
vt 0.399702 0.255779
vt 0.399702 0.255779
vt 0.625000 0.250000
vt 0.375000 0.250000
vt 0.875000 0.500000
vt 0.875000 0.500000
vt 0.000000 0.000000
vt 0.000000 0.000000
vt 0.000000 0.000000
vt 0.000000 0.000000
vt 0.125000 0.500000
vt 0.125000 0.500000
vt 0.375000 0.250000
vt 0.625000 0.250000
vt 0.600298 0.255779
vt 0.600298 0.255779
vt 0.399702 0.255779
vt 0.399702 0.255779
vt 0.625000 0.250000
vt 0.375000 0.250000
vt 0.875000 0.500000
vt 0.875000 0.500000
vt 0.625000 0.250000
vt 0.375000 0.250000
vt 0.875000 0.500000
vt 0.875000 0.500000
vt 0.399702 0.255779
vt 0.600298 0.255779
vt 0.000000 0.000000
vt 0.000000 0.000000
vt 0.125000 0.500000
vt 0.125000 0.500000
vt 0.375000 0.250000
vt 0.625000 0.250000
vt 0.600298 0.255779
vt 0.399702 0.255779
vt 0.600298 0.255779
vt 0.600298 0.255779
vt 0.399702 0.255779
vt 0.399702 0.255779
vt 0.625000 0.250000
vt 0.375000 0.250000
vt 0.875000 0.500000
vt 0.875000 0.500000
vt 0.000000 0.000000
vt 0.000000 0.000000
vt 0.125000 0.500000
vt 0.125000 0.500000
vt 0.375000 0.250000
vt 0.625000 0.250000
vt 0.125000 0.500000
vt 0.125000 0.500000
vt 0.375000 0.250000
vt 0.625000 0.250000
vt 0.600298 0.255779
vt 0.600298 0.255779
vt 0.399702 0.255779
vt 0.399702 0.255779
vt 0.625000 0.250000
vt 0.375000 0.250000
vt 0.875000 0.500000
vt 0.875000 0.500000
vt 0.000000 0.000000
vt 0.000000 0.000000
vt 0.399702 0.255779
vt 0.600298 0.255779
vt 0.000000 0.000000
vt 0.000000 0.000000
vt 0.125000 0.500000
vt 0.125000 0.500000
vt 0.375000 0.250000
vt 0.625000 0.250000
vt 0.600298 0.255779
vt 0.399702 0.255779
vt 0.625000 0.250000
vt 0.375000 0.250000
vt 0.875000 0.500000
vt 0.875000 0.500000
vt 0.625000 0.250000
vt 0.375000 0.250000
vt 0.875000 0.500000
vt 0.875000 0.500000
vt 0.399702 0.255779
vt 0.600298 0.255779
vt 0.000000 0.000000
vt 0.000000 0.000000
vt 0.125000 0.500000
vt 0.125000 0.500000
vt 0.375000 0.250000
vt 0.625000 0.250000
vt 0.600298 0.255779
vt 0.399702 0.255779
vt 0.000000 0.000000
vt 0.000000 0.000000
vt 0.000000 0.000000
vt 0.000000 0.000000
vt 0.000000 0.000000
vt 0.000000 0.000000
vn 0.0000 0.0000 -1.0000
vn 0.0000 0.0000 1.0000
vn 0.0000 -1.0000 0.0000
vn 0.0000 1.0000 0.0000
vn 1.0000 0.0000 0.0000
vn -1.0000 0.0000 0.0000
vn 1.0000 0.0000 0.0079
vn -1.0000 0.0000 -0.0079
vn 0.9515 0.0000 0.3077
vn -0.9470 0.0000 -0.3211
vn -0.0667 -0.9689 0.2383
vn 0.9462 0.0000 0.3234
vn -0.9519 0.0000 -0.3065
vn 0.0667 0.9689 -0.2383
vn 0.2225 0.9492 -0.2224
vn -0.5834 0.0000 -0.8122
vn 0.5799 0.0000 0.8147
vn -0.5427 0.0000 -0.8399
vn -0.2225 -0.9492 0.2224
vn 0.5367 0.0000 0.8438
vn -0.2384 -0.9658 0.1019
vn 0.2155 0.0000 0.9765
vn 0.2384 0.9658 -0.1019
vn -0.2424 0.0000 -0.9702
vn 0.2402 0.0000 0.9707
vn -0.2186 0.0000 -0.9758
vn 0.1187 0.0000 -0.9929
vn -0.2455 -0.9690 -0.0272
vn -0.1192 0.0000 0.9929
vn 0.2455 0.9690 0.0272
vn 0.1158 0.0000 -0.9933
vn -0.1161 0.0000 0.9932
vn 0.7168 0.0000 -0.6973
vn 0.1472 0.9767 0.1561
vn -0.7165 0.0000 0.6976
vn 0.7124 0.0000 -0.7017
vn -0.1472 -0.9767 -0.1561
vn -0.7117 0.0000 0.7025
vn -0.0254 -0.9734 -0.2278
vn 0.0254 0.9734 0.2278
vn 0.9775 0.0000 -0.2110
vn -0.9769 0.0000 0.2138
vn 0.9695 0.0000 -0.2450
vn -0.9682 0.0000 0.2502
vn 0.1187 -0.9537 -0.2762
vn -0.9613 0.0000 -0.2754
vn -0.1187 0.9537 0.2762
vn 0.9546 0.0000 0.2979
vn -0.9552 0.0000 -0.2961
vn 0.9605 0.0000 0.2781
vn -0.5729 0.0000 -0.8197
vn 0.5532 0.0000 0.8330
vn 0.1953 -0.9660 -0.1694
vn -0.5502 0.0000 -0.8351
vn -0.1953 0.9660 0.1694
vn 0.5748 0.0000 0.8183
vn -0.0339 0.0000 0.9994
vn -0.0048 1.0000 0.0011
vn 0.0361 0.0000 -0.9993
vn -0.0558 0.0000 0.9984
vn 0.0048 -1.0000 -0.0011
vn 0.0584 0.0000 -0.9983
vn -0.9999 0.0000 -0.0168
usemtl None
s off
f 9/1/1 12/2/1 13/3/1 14/4/1
f 15/5/2 16/6/2 11/7/2 10/8/2
f 9/9/3 14/4/3 15/5/3 10/10/3
f 13/3/4 12/11/4 11/12/4 16/6/4
f 9/9/3 10/10/3 78/13/3 77/14/3
f 41/15/1 1/16/1 82/17/1 83/18/1
f 8/19/5 7/20/5 14/4/5 13/3/5
f 7/20/5 5/21/5 15/5/5 14/4/5
f 6/22/5 8/19/5 13/3/5 16/6/5
f 5/21/5 6/22/5 16/6/5 15/5/5
f 22/23/2 7/20/2 8/19/2 21/24/2 36/25/2
f 22/23/4 23/26/4 5/21/4 7/20/4
f 23/26/1 35/27/1 24/28/1 6/22/1 5/21/1
f 24/28/3 21/24/3 8/19/3 6/22/3
f 28/29/3 25/30/3 17/31/3 20/32/3
f 27/33/1 43/34/1 28/29/1 20/32/1 33/35/1 19/36/1
f 26/37/4 27/33/4 19/36/4 18/38/4
f 26/37/2 18/38/2 34/39/2 17/31/2 25/30/2 45/40/2
f 20/32/3 17/31/3 21/24/3 24/28/3
f 33/35/1 20/32/1 24/28/1 35/27/1
f 18/38/4 19/36/4 23/26/4 22/23/4
f 34/39/2 36/25/2 21/24/2 17/31/2
f 46/41/1 29/42/1 25/30/1 45/40/1
f 30/43/4 31/44/4 27/33/4 26/37/4
f 44/45/2 43/34/2 28/29/2 32/46/2
f 32/46/4 28/29/4 25/30/4 29/42/4
f 40/47/3 37/48/3 29/42/3 32/46/3
f 39/49/1 52/50/1 40/47/1 32/46/1 44/45/1 31/44/1
f 38/51/4 59/52/4 57/53/4 39/49/4 31/44/4 30/43/4
f 38/51/2 30/43/2 46/41/2 29/42/2 37/48/2 51/54/2
f 18/38/2 22/23/2 36/25/2 34/39/2
f 19/36/1 33/35/1 35/27/1 23/26/1
f 33/35/4 35/27/4 36/25/4 34/39/4
f 36/55/5 35/56/5 23/57/5 22/58/5
f 42/59/2 51/54/2 37/48/2 4/60/2
f 3/61/3 38/51/3 59/52/3 57/53/3 39/49/3 1/16/3
f 41/15/1 2/62/1 40/47/1 52/50/1
f 2/62/3 4/60/3 37/48/3 40/47/3
f 31/44/1 44/45/1 43/34/1 27/33/1
f 30/43/2 26/37/2 45/40/2 46/41/2
f 3/61/1 42/59/1 51/54/1 38/51/1
f 1/16/2 39/49/2 52/50/2 41/15/2
f 43/34/3 44/45/3 46/41/3 45/40/3
f 45/63/5 25/64/5 28/65/5 43/66/5
f 29/67/6 46/68/6 44/69/6 32/70/6
f 48/71/2 54/72/2 53/73/2 47/74/2
f 42/75/6 3/76/6 1/77/6 41/78/6
f 59/79/5 38/80/5 51/81/5 60/82/5
f 47/74/4 51/54/4 42/59/4 48/71/4
f 50/83/4 41/15/4 52/50/4 49/84/4
f 49/84/4 52/50/4 58/85/4 60/86/4 51/54/4 47/74/4
f 48/71/4 42/59/4 41/15/4 50/83/4
f 53/73/4 54/72/4 55/87/4 56/88/4
f 50/83/5 55/87/5 54/72/5 48/71/5
f 49/84/1 56/88/1 55/87/1 50/83/1
f 47/74/6 53/73/6 56/88/6 49/84/6
f 39/89/5 57/90/5 58/91/5 52/92/5
f 57/90/2 63/93/2 65/94/2 62/95/2 58/91/2
f 65/94/5 66/96/5 61/97/5 62/95/5
f 60/82/1 61/97/1 66/96/1 64/98/1 59/79/1
f 59/52/3 64/99/3 63/100/3 57/53/3
f 58/85/4 62/101/4 61/102/4 60/86/4
f 66/96/1 70/103/1 72/104/1 69/105/1 64/98/1
f 71/106/5 72/104/5 70/103/5 67/107/5
f 63/93/2 68/108/2 71/106/2 67/107/2 65/94/2
f 65/94/4 67/107/4 70/103/4 66/96/4
f 64/99/3 69/109/3 68/110/3 63/100/3
f 68/108/2 74/111/2 73/112/2 71/106/2
f 74/111/5 75/113/5 76/114/5 73/112/5
f 69/109/3 75/115/3 74/116/3 68/110/3
f 71/106/4 73/112/4 76/114/4 72/104/4
f 72/104/1 76/114/1 75/113/1 69/105/1
f 82/117/6 81/118/6 77/119/6 78/120/6
f 84/121/6 83/122/6 82/117/6 78/120/6 79/123/6
f 85/124/6 84/121/6 79/123/6 80/125/6
f 81/118/6 86/126/6 85/124/6 80/125/6 77/119/6
f 4/60/3 2/62/3 84/127/3 85/128/3 89/129/3 87/130/3
f 10/8/2 11/7/2 79/131/2 78/132/2
f 1/16/4 3/61/4 88/133/4 90/134/4 81/135/4 82/17/4
f 11/12/4 12/11/4 80/136/4 79/137/4
f 2/62/1 41/15/1 83/18/1 84/127/1
f 42/75/2 4/138/2 87/139/2 88/140/2 3/76/2
f 81/135/2 90/134/2 89/129/2 85/128/2 86/126/2
f 89/129/7 90/134/7 94/141/7 93/142/7
f 87/130/3 89/129/3 93/142/3 91/143/3
f 90/134/4 88/133/4 92/144/4 94/141/4
f 88/140/8 87/139/8 91/145/8 92/146/8
f 80/136/4 12/11/4 96/147/4 98/148/4
f 12/2/5 9/1/5 95/149/5 96/150/5
f 9/9/3 77/14/3 97/151/3 95/152/3
f 77/119/6 80/125/6 98/153/6 97/154/6
f 93/142/9 94/141/9 102/155/9 101/156/9
f 92/146/10 91/145/10 99/157/10 100/158/10
f 95/152/11 97/151/11 105/159/11 103/160/11
f 96/150/12 95/149/12 103/161/12 104/162/12
f 91/143/11 93/142/11 101/156/11 99/163/11
f 97/154/13 98/153/13 106/164/13 105/165/13
f 94/141/14 92/144/14 100/166/14 102/155/14
f 98/148/14 96/147/14 104/167/14 106/168/14
f 102/155/15 100/166/15 108/169/15 110/170/15
f 105/165/16 106/164/16 114/171/16 113/172/16
f 106/168/15 104/167/15 112/173/15 114/174/15
f 101/156/17 102/155/17 110/170/17 109/175/17
f 100/158/18 99/157/18 107/176/18 108/177/18
f 103/160/19 105/159/19 113/178/19 111/179/19
f 104/162/20 103/161/20 111/180/20 112/181/20
f 99/163/19 101/156/19 109/175/19 107/182/19
f 111/179/21 113/178/21 121/183/21 119/184/21
f 112/181/22 111/180/22 119/185/22 120/186/22
f 107/182/21 109/175/21 117/187/21 115/188/21
f 110/170/23 108/169/23 116/189/23 118/190/23
f 113/172/24 114/171/24 122/191/24 121/192/24
f 114/174/23 112/173/23 120/193/23 122/194/23
f 109/175/25 110/170/25 118/190/25 117/187/25
f 108/177/26 107/176/26 115/195/26 116/196/26
f 116/196/27 115/195/27 123/197/27 124/198/27
f 119/184/28 121/183/28 129/199/28 127/200/28
f 120/186/29 119/185/29 127/201/29 128/202/29
f 115/188/28 117/187/28 125/203/28 123/204/28
f 118/190/30 116/189/30 124/205/30 126/206/30
f 121/192/31 122/191/31 130/207/31 129/208/31
f 122/194/30 120/193/30 128/209/30 130/210/30
f 117/187/32 118/190/32 126/206/32 125/203/32
f 129/208/33 130/207/33 138/211/33 137/212/33
f 130/210/34 128/209/34 136/213/34 138/214/34
f 125/203/35 126/206/35 134/215/35 133/216/35
f 124/198/36 123/197/36 131/217/36 132/218/36
f 127/200/37 129/199/37 137/219/37 135/220/37
f 128/202/38 127/201/38 135/221/38 136/222/38
f 123/204/37 125/203/37 133/216/37 131/223/37
f 126/206/34 124/205/34 132/224/34 134/215/34
f 131/223/39 133/216/39 141/225/39 139/226/39
f 134/215/40 132/224/40 140/227/40 142/228/40
f 137/212/41 138/211/41 146/229/41 145/230/41
f 138/214/40 136/213/40 144/231/40 146/232/40
f 133/216/42 134/215/42 142/228/42 141/225/42
f 132/218/43 131/217/43 139/233/43 140/234/43
f 135/220/39 137/219/39 145/235/39 143/236/39
f 136/222/44 135/221/44 143/237/44 144/238/44
f 143/236/45 145/235/45 153/239/45 151/240/45
f 144/238/46 143/237/46 151/241/46 152/242/46
f 139/226/45 141/225/45 149/243/45 147/244/45
f 142/228/47 140/227/47 148/245/47 150/246/47
f 145/230/48 146/229/48 154/247/48 153/248/48
f 146/232/47 144/231/47 152/249/47 154/250/47
f 141/225/49 142/228/49 150/246/49 149/243/49
f 140/234/50 139/233/50 147/251/50 148/252/50
f 149/243/51 150/246/51 158/253/51 157/254/51
f 148/252/52 147/251/52 155/255/52 156/256/52
f 151/240/53 153/239/53 161/257/53 159/258/53
f 152/242/54 151/241/54 159/259/54 160/260/54
f 147/244/53 149/243/53 157/254/53 155/261/53
f 150/246/55 148/245/55 156/262/55 158/253/55
f 153/248/56 154/247/56 162/263/56 161/264/56
f 154/250/55 152/249/55 160/265/55 162/266/55
f 161/264/57 162/263/57 170/267/57 169/268/57
f 162/266/58 160/265/58 168/269/58 170/270/58
f 157/254/59 158/253/59 166/271/59 165/272/59
f 156/256/60 155/255/60 163/273/60 164/274/60
f 159/258/61 161/257/61 169/275/61 167/276/61
f 160/260/62 159/259/62 167/277/62 168/278/62
f 155/261/61 157/254/61 165/272/61 163/279/61
f 158/253/58 156/262/58 164/280/58 166/271/58
f 81/281/5 86/282/5 85/283/5 84/284/5 83/285/5 82/286/5
f 166/271/63 164/274/63 167/276/63 169/275/63
f 163/273/63 165/272/63 170/270/63 168/278/63
f 164/274/63 163/273/63 168/278/63 167/277/63
f 166/271/63 169/275/63 170/267/63 165/272/63
o 立方體.001
v -37.443016 -8.603883 10.308252
v -37.443016 -0.122535 10.308252
v -37.443016 -8.603883 5.446731
v -37.443016 -0.122535 5.446731
v -35.190063 -0.122535 5.446731
v -35.190063 -0.122535 10.308252
v -35.190063 -8.603883 10.308252
v -35.190063 -8.603883 5.446731
v -35.190063 -3.183715 10.308252
v -35.190063 -3.183715 5.446731
v -31.749750 -3.183715 10.308252
v -31.749750 -8.603883 10.308252
v -31.749750 -8.603883 5.446731
v -31.749750 -3.183715 5.446731
v -31.749750 -6.119449 10.308252
v -31.749750 -6.119449 5.446731
v -28.127022 -6.119449 10.308252
v -28.127022 -8.603883 10.308252
v -28.127022 -8.603883 5.446731
v -28.127022 -6.119449 5.446731
vt 0.000000 0.000000
vt 0.000000 0.000000
vt 0.000000 0.000000
vt 0.000000 0.000000
vt 0.000000 0.000000
vt 0.000000 0.000000
vt 0.000000 0.000000
vt 0.000000 0.000000
vt 0.000000 0.000000
vt 0.000000 0.000000
vt 0.399702 0.308929
vt 0.399702 0.292350
vt 0.399702 0.292350
vt 0.399702 0.308929
vt 0.500000 0.292350
vt 0.500000 0.308929
vt 0.500000 0.308929
vt 0.500000 0.292350
vt 0.000000 0.000000
vt 0.000000 0.000000
vt 0.000000 0.000000
vt 0.000000 0.000000
vt 0.000000 0.000000
vt 0.000000 0.000000
vt 0.399702 0.292350
vt 0.399702 0.308929
vt 0.000000 0.000000
vt 0.000000 0.000000
vt 0.000000 0.000000
vt 0.000000 0.000000
vt 0.399702 0.292350
vt 0.399702 0.308929
vn 0.0000 0.0000 -1.0000
vn -1.0000 0.0000 0.0000
vn 0.0000 0.0000 1.0000
vn 0.0000 1.0000 0.0000
vn 0.0000 -1.0000 0.0000
usemtl None
s off
f 171/287/64 172/288/64 176/289/64 179/290/64 177/291/64
f 179/290/65 176/289/65 175/292/65 180/293/65
f 174/294/66 173/295/66 178/296/66 180/293/66 175/292/66
f 173/297/67 171/298/67 177/299/67 178/300/67
f 172/301/68 174/302/68 175/303/68 176/304/68
f 180/293/66 178/296/66 183/305/66 186/306/66 184/307/66
f 185/308/65 181/309/65 184/307/65 186/306/65
f 177/291/64 179/290/64 181/309/64 185/308/64 182/310/64
f 179/290/68 180/293/68 184/307/68 181/309/68
f 178/300/67 177/299/67 182/311/67 183/312/67
f 182/310/64 185/308/64 187/313/64 188/314/64
f 188/314/65 187/313/65 190/315/65 189/316/65
f 183/312/67 182/311/67 188/317/67 189/318/67
f 185/308/68 186/306/68 190/315/68 187/313/68
f 186/306/66 183/305/66 189/316/66 190/315/66
